PathFileType	4	(X/Y/Z)	C:\Vicon\SynologyDrive\Alex P\Athlete_3\Athlete_3_22_07_06\static_01\marker_experimental.trc																																																																																																																																																																																																																																											
DataRate	CameraRate	NumFrames	NumMarkers	Units	OrigDataRate	OrigDataStartFrame	OrigNumFrames																																																																																																																																																																																																																																							
200	200	4	79	mm	200	173	693																																																																																																																																																																																																																																							
Frame#	Time	GLAB			RFHD			LFHD			C7			T6			SPINMOL			SPINM2			SPINM3			T12			BELTOL			BELT2			BELT3			SACROL			SACR2			SACR3			LASI			RASI			LPSI			RPSI			LTHOL			LTH2			LTH3			LKNEL			LKNEM			LFIB			LSHAOL			LSHA2			LSHA3			LMALL			LMALM			LHEE			LTOE			LM5			RTHOL			RTH2			RTH3			RKNEL			RKNEM			RFIB			RSHAOL			RSHA2			RSHA3			RMALL			RMALM			RHEE			RTOE			RM5			STRN			XIPH			LACR			LUAOL			LUA2			LUA3			LCUBL			LCUBM			LLAOL			LLA2			LLA3			LWRR			LWRU			RACR			RUAOL			RUA2			RUA3			RCUBL			RCUBM			RLAOL			RLA2			RLA3			RWRR			RWRU			Bar:BL			Bar:BR			LKJCWK			RKJCWK			RAJCWK			LAJCWK			RHJCWK			LHJCWK		
		X1	Y1	Z1	X2	Y2	Z2	X3	Y3	Z3	X4	Y4	Z4	X5	Y5	Z5	X6	Y6	Z6	X7	Y7	Z7	X8	Y8	Z8	X9	Y9	Z9	X10	Y10	Z10	X11	Y11	Z11	X12	Y12	Z12	X13	Y13	Z13	X14	Y14	Z14	X15	Y15	Z15	X16	Y16	Z16	X17	Y17	Z17	X18	Y18	Z18	X19	Y19	Z19	X20	Y20	Z20	X21	Y21	Z21	X22	Y22	Z22	X23	Y23	Z23	X24	Y24	Z24	X25	Y25	Z25	X26	Y26	Z26	X27	Y27	Z27	X28	Y28	Z28	X29	Y29	Z29	X30	Y30	Z30	X31	Y31	Z31	X32	Y32	Z32	X33	Y33	Z33	X34	Y34	Z34	X35	Y35	Z35	X36	Y36	Z36	X37	Y37	Z37	X38	Y38	Z38	X39	Y39	Z39	X40	Y40	Z40	X41	Y41	Z41	X42	Y42	Z42	X43	Y43	Z43	X44	Y44	Z44	X45	Y45	Z45	X46	Y46	Z46	X47	Y47	Z47	X48	Y48	Z48	X49	Y49	Z49	X50	Y50	Z50	X51	Y51	Z51	X52	Y52	Z52	X53	Y53	Z53	X54	Y54	Z54	X55	Y55	Z55	X56	Y56	Z56	X57	Y57	Z57	X58	Y58	Z58	X59	Y59	Z59	X60	Y60	Z60	X61	Y61	Z61	X62	Y62	Z62	X63	Y63	Z63	X64	Y64	Z64	X65	Y65	Z65	X66	Y66	Z66	X67	Y67	Z67	X68	Y68	Z68	X69	Y69	Z69	X70	Y70	Z70	X71	Y71	Z71	X72	Y72	Z72	X73	Y73	Z73	X74	Y74	Z74	X75	Y75	Z75	X76	Y76	Z76	X77	Y77	Z77	X78	Y78	Z78	X79	Y79	Z79
																																																																																																																																																																																																																																														
174	0.865	358.4506531	1573.238281	-1215.650635	299.9780273	1588.278931	-1138.942627	295.3048096	1588.44043	-1291.084106	133.736969	1449.259644	-1211.517456	78.61898041	1244.51062	-1226.073853	74.30695343	1212.210449	-1230.357788	69.35401154	1151.287354	-1178.505249	78.56066895	1150.410156	-1227.412354	91.81130981	1109.527466	-1226.276855	68.39115143	1087.09436	-1225.566284	69.69087219	1027.503418	-1172.460449	62.00523376	1025.331421	-1222.040161	72.7363739	975.6262207	-1247.371582	79.82603455	985.21875	-1197.734985	49.28264236	927.2243042	-1208.86792	288.5669556	942.4267578	-1336.375977	292.8195496	941.9966431	-1108.786743	84.43093109	991.7167358	-1259.260864	85.2284317	990.3665161	-1170.110962	202.359787	737.6173096	-1443.362549	153.1082153	677.0736084	-1426.436157	201.3899078	675.6269531	-1440.520996	192.5269165	497.9961548	-1426.947876	215.9107361	465.9984131	-1283.062012	152.2940521	442.373291	-1428.000977	144.8272705	326.3475647	-1449.635254	101.6634979	260.3057556	-1444.31665	150.9852448	264.4796143	-1449.947632	126.1562729	85.34012604	-1434.092285	169.3601074	96.3348465	-1350.443237	78.4323349	38.92298889	-1374.831421	289.6470947	47.29980087	-1391.238037	238.5620728	32.11125946	-1492.150635	175.8535156	708.3016968	-1006.075623	207.2267303	636.0679321	-992.4104004	161.447525	647.6894531	-1009.280151	161.4473114	496.8543701	-1013.476013	209.2906494	461.5666199	-1151.451782	117.4023285	442.4824829	-1014.915771	91.99873352	323.2207947	-998.2427979	131.4337158	255.8950958	-982.9942017	85.39026642	262.1277771	-1002.143799	90.09424591	86.78813171	-1016.784851	153.061264	97.01927185	-1084.266235	58.05373001	38.27292252	-1077.669312	261.6053162	43.20078278	-1022.243652	202.3529205	40.96652985	-937.2058716	282.6993103	1365.997314	-1224.25354	319.5927734	1208.384888	-1226.320313	143.7774353	1413.022583	-1399.767212	130.8752289	1347.883057	-1513.290405	121.3177185	1297.352783	-1555.545166	155.5411682	1332.646729	-1572.769043	166.6523895	1295.112549	-1681.064209	189.1959686	1209.076294	-1631.07019	195.2726898	1263.169189	-1766.718506	200.8391266	1226.595581	-1821.174561	239.5552826	1257.965088	-1815.021973	308.7225952	1186.291016	-1860.438477	251.3523102	1208.394775	-1902.892212	161.4339752	1402.340088	-1040.961548	171.9870148	1335.362915	-908.5809937	222.1745758	1326.290527	-865.857605	177.0311432	1315.397461	-845.1539917	169.5608215	1288.88623	-794.6174316	224.7693939	1194.976074	-808.5358887	227.5796814	1270.800903	-672.3093872	278.5975342	1258.882813	-632.7508545	233.6376648	1246.304932	-612.4191895	316.0136108	1178.550049	-580.1809692	250.1807709	1211.12915	-543.3222656	1512.081421	1285.450928	-2307.400146	1540.653931	1283.408447	0	204.2188	481.9973	-1355.0049	185.369	479.2105	-1082.4639	119.8557	81.448	-1049.6633	146.2322	80.2651	-1393.2749	232.9936	873.5019	-1139.1502	229.9122	873.8136	-1304.057
175	0.87	358.4963074	1573.223389	-1215.658569	300.0364685	1588.276489	-1138.942261	295.3434143	1588.428711	-1291.08252	133.7848206	1449.26062	-1211.513184	78.64365387	1244.518311	-1226.071167	74.33860016	1212.203247	-1230.35144	69.3806839	1151.2948	-1178.511475	78.58061981	1150.41272	-1227.415771	91.82575989	1109.531372	-1226.28479	68.40944672	1087.096924	-1225.576782	69.70082092	1027.501099	-1172.464355	62.02533722	1025.335571	-1222.043701	72.69030762	975.5953369	-1247.394165	79.8404541	985.2261963	-1197.720215	49.28829575	927.2319946	-1208.873291	288.5849609	942.4234009	-1336.363037	292.8341064	941.9912109	-1108.777832	84.45178986	991.710083	-1259.260376	85.2469635	990.3738403	-1170.116211	202.3779144	737.6096802	-1443.358032	153.1327209	677.0698242	-1426.426636	201.3918762	675.6212158	-1440.505249	192.5380249	497.9955444	-1426.948242	215.8993683	465.9831238	-1283.105103	152.2970734	442.3770447	-1428.000977	144.8297729	326.3486938	-1449.639893	101.6721802	260.3057556	-1444.312378	150.9876404	264.4831543	-1449.951172	126.1534882	85.34122467	-1434.084229	169.3626099	96.33579254	-1350.445068	78.44058228	38.92181015	-1374.829346	289.6543884	47.30851364	-1391.236816	238.5671844	32.10945511	-1492.145752	175.8536224	708.2987061	-1006.071899	207.2373962	636.0661621	-992.4093628	161.4473724	647.6755371	-1009.27533	161.4458618	496.8497925	-1013.4776	209.2902679	461.5593567	-1151.458862	117.4034348	442.4813538	-1014.919556	91.95574951	323.2266846	-998.2103271	131.435379	255.8970642	-982.9912109	85.38231659	262.1246643	-1002.129211	90.09107208	86.78923035	-1016.784851	153.0517883	97.01618195	-1084.263306	58.05467224	38.26853561	-1077.66394	261.6037903	43.19414902	-1022.244995	202.3507996	40.95767212	-937.2033691	282.7404175	1365.970825	-1224.249756	319.6192017	1208.370972	-1226.321533	143.7978821	1413.009521	-1399.755249	130.8921204	1347.873779	-1513.284546	121.3389664	1297.34082	-1555.543457	155.5621796	1332.634277	-1572.752441	166.6831055	1295.115112	-1681.057251	189.2102661	1209.081299	-1631.074341	195.2937012	1263.165405	-1766.714478	200.8548737	1226.603516	-1821.186646	239.464859	1257.948608	-1815.048584	308.7306824	1186.279785	-1860.434937	251.3721161	1208.395386	-1902.889282	161.457077	1402.344849	-1040.954346	172.004837	1335.365967	-908.5829468	222.1839447	1326.278198	-865.8682861	177.0313416	1315.417603	-845.1513062	169.5762482	1288.899536	-794.6200562	224.7799988	1194.997559	-808.5135498	227.552475	1270.820313	-672.3156738	278.5697021	1258.897583	-632.7573242	233.8493652	1246.203491	-612.3830566	316.0003967	1178.577271	-580.1532593	250.1847992	1211.155273	-543.3051758	1512.101929	1285.452515	-2307.416016	1540.650513	1283.405273	0	204.2187	481.9893	-1355.0267	185.3681	479.2046	-1082.4682	119.8492	81.447	-1049.6617	146.232	80.2661	-1393.2712	233.0068	873.4983	-1139.1407	229.9279	873.8115	-1304.048
176	0.875	358.5477295	1573.21521	-1215.656006	300.0879517	1588.270752	-1138.942017	295.3923645	1588.416992	-1291.080078	133.8031158	1449.265869	-1211.505005	78.67061615	1244.515869	-1226.081787	74.37479401	1212.203125	-1230.344604	69.40710449	1151.294434	-1178.515625	78.59925842	1150.412231	-1227.415405	91.85546875	1109.5271	-1226.286011	68.44071198	1087.097168	-1225.579468	69.72437286	1027.505493	-1172.456055	62.0390358	1025.332642	-1222.046265	72.72502136	975.628479	-1247.382813	79.9063797	985.2216797	-1197.706177	49.30329132	927.2321777	-1208.868896	288.6043091	942.4207764	-1336.358887	292.8576355	941.9855347	-1108.779907	84.47119904	991.7103882	-1259.260132	85.26856995	990.3717651	-1170.127197	202.4047241	737.6088257	-1443.364502	153.1547852	677.0662842	-1426.425781	201.4299927	675.6195679	-1440.512451	192.5394287	497.9962158	-1426.946899	216.2778168	466.0523376	-1282.913574	152.296402	442.3749084	-1428.003662	144.8394775	326.3491211	-1449.638916	101.6810074	260.3125	-1444.315063	150.9908752	264.4811096	-1449.953003	126.1570969	85.34424591	-1434.091553	169.3689728	96.33940887	-1350.442749	78.44210815	38.9253273	-1374.826904	289.6523743	47.30618668	-1391.241943	238.5631561	32.11109543	-1492.149414	175.8679352	708.2980957	-1006.072205	207.2444	636.0639648	-992.4009399	161.4522552	647.6714478	-1009.266418	161.4499512	496.8460693	-1013.476868	209.2920074	461.5603638	-1151.451538	117.4026642	442.48172	-1014.9198	91.91336823	323.2371216	-998.1859741	131.5365906	255.806427	-983.213501	85.28145599	262.0084839	-1002.034302	90.09689331	86.78678894	-1016.780518	153.0543213	97.01683044	-1084.258667	58.05035782	38.26929855	-1077.664063	261.6045532	43.19182587	-1022.252075	202.3540955	40.9595108	-937.2010498	282.7747192	1365.955933	-1224.24646	319.6389771	1208.359375	-1226.322144	143.8217773	1413.001221	-1399.749878	130.9301605	1347.864624	-1513.274292	121.3595352	1297.329468	-1555.541016	155.5928497	1332.633057	-1572.75647	166.6991882	1295.119385	-1681.055908	189.2329407	1209.082153	-1631.069092	195.3140869	1263.173584	-1766.719604	200.8901978	1226.60498	-1821.176514	239.6031189	1257.954224	-1815.014771	308.7420044	1186.268677	-1860.43396	251.3899384	1208.395508	-1902.885132	161.486557	1402.349731	-1040.955322	172.0440521	1335.362427	-908.5834961	222.1803284	1326.523926	-865.7319336	177.046814	1315.436157	-845.142334	169.5736542	1288.916016	-794.602478	224.7907715	1195.019775	-808.5006714	227.5760193	1270.838257	-672.2786865	278.539978	1258.893066	-632.7705078	233.6696472	1246.322632	-612.381897	316.0016479	1178.6073	-580.1277466	250.1855774	1211.192749	-543.2857666	1512.081909	1285.441406	-2307.40625	1540.647339	1283.411987	0	204.4086	482.0243	-1354.9302	185.371	479.2032	-1082.4642	119.8534	81.4461	-1049.6572	146.2322	80.2703	-1393.2762	233.0288	873.4939	-1139.1395	229.9468	873.8093	-1304.04
177	0.88	358.6003418	1573.202515	-1215.651489	300.1269836	1588.280151	-1138.943481	295.4311523	1588.405518	-1291.084961	133.8455811	1449.265991	-1211.496826	78.70401764	1244.519409	-1226.078369	74.40817261	1212.2052	-1230.336548	69.42733765	1151.294434	-1178.518311	78.60496521	1150.414917	-1227.419678	91.88153839	1109.526001	-1226.286499	68.45776367	1087.098511	-1225.571899	69.74193573	1027.50293	-1172.453735	62.06535339	1025.335327	-1222.038696	72.75998688	975.6408081	-1247.422119	79.89554596	985.2420044	-1197.711548	49.32317352	927.2459106	-1208.886475	288.618927	942.4163208	-1336.354614	292.8636475	941.9726563	-1108.779907	84.48388672	991.7086792	-1259.278442	85.2816391	990.378418	-1170.117554	202.421875	737.6031494	-1443.363037	153.1571503	677.0766602	-1426.417358	201.4457397	675.6226196	-1440.516113	192.544342	497.9977112	-1426.941772	216.270874	466.0473633	-1282.962524	152.3025818	442.375061	-1427.997925	144.8486786	326.3547363	-1449.643311	101.6872635	260.3096619	-1444.333252	150.9977722	264.4847412	-1449.953735	126.1609116	85.34355927	-1434.091919	169.3733521	96.3416214	-1350.452881	78.43385315	38.92443848	-1374.828857	289.6510925	47.30713654	-1391.240479	238.5690918	32.10709381	-1492.14502	175.880249	708.2915039	-1006.067566	207.2350616	636.0533447	-992.4002686	161.459137	647.6739502	-1009.26532	161.4496765	496.8427124	-1013.481262	209.2914124	461.5566711	-1151.448242	117.4115067	442.4806213	-1014.916626	92.01363373	323.217926	-998.2527466	131.4407196	255.8946228	-982.9924927	85.38716888	262.1281738	-1002.126831	90.08916473	86.78565979	-1016.778259	153.0551605	97.01670074	-1084.256958	58.05155182	38.26425171	-1077.667603	261.6046143	43.19448853	-1022.249268	202.3621674	40.95314026	-937.2055664	282.8207092	1365.944458	-1224.248657	319.6489868	1208.338867	-1226.317261	143.8509064	1412.994385	-1399.746338	130.9516449	1347.86853	-1513.278809	121.3877106	1297.326782	-1555.529175	155.6101227	1332.629883	-1572.751465	166.7313995	1295.115479	-1681.051514	189.2526245	1209.070801	-1631.061157	195.3475494	1263.170654	-1766.717651	200.9195709	1226.624634	-1821.184692	239.6298676	1257.95105	-1815.010864	308.7492065	1186.262329	-1860.439209	251.406311	1208.398682	-1902.888794	161.5132599	1402.348999	-1040.953613	172.0281067	1335.38269	-908.5325928	222.1723785	1326.545898	-865.7286987	177.0519409	1315.454346	-845.1380615	169.5872803	1288.930298	-794.6079712	224.7921143	1195.034058	-808.4812622	227.5606079	1270.860352	-672.3114014	278.4490051	1259.053467	-632.8556519	233.7574005	1246.427979	-612.2905884	315.9980774	1178.641479	-580.104187	250.185318	1211.221924	-543.2746582	1512.079834	1285.468506	-2307.396973	1540.649536	1283.410889	0	204.4076	482.0225	-1354.9521	185.3705	479.1997	-1082.4648	119.8498	81.4455	-1049.6552	146.2364	80.271	-1393.281	233.0322	873.4854	-1139.142	229.9564	873.8069	-1304.049
